<svg width="1024" height="1024" viewBox="0 0 1024 1024" xmlns="http://www.w3.org/2000/svg">
  <defs>
    <!-- 深色终端窗体背景渐变 -->
    <linearGradient id="bg" x1="0" y1="0" x2="0" y2="1">
      <stop offset="0" stop-color="#243140"/>
      <stop offset="1" stop-color="#11192180"/>
    </linearGradient>
    <linearGradient id="bgSolid" x1="0" y1="0" x2="0" y2="1">
      <stop offset="0" stop-color="#222d3a"/>
      <stop offset="1" stop-color="#10171f"/>
    </linearGradient>
    <!-- 品牌蓝提示符渐变 -->
    <linearGradient id="accent" x1="0" y1="0" x2="1" y2="1">
      <stop offset="0" stop-color="#2b9fe6"/>
      <stop offset="1" stop-color="#0e639c"/>
    </linearGradient>
    <!-- 顶部高光 -->
    <linearGradient id="sheen" x1="0" y1="0" x2="0" y2="1">
      <stop offset="0" stop-color="#ffffff" stop-opacity="0.10"/>
      <stop offset="0.5" stop-color="#ffffff" stop-opacity="0"/>
    </linearGradient>
    <filter id="glow" x="-30%" y="-30%" width="160%" height="160%">
      <feGaussianBlur stdDeviation="14" result="b"/>
      <feMerge>
        <feMergeNode in="b"/>
        <feMergeNode in="SourceGraphic"/>
      </feMerge>
    </filter>
  </defs>

  <!-- squircle 底板 -->
  <rect x="64" y="64" width="896" height="896" rx="208" fill="url(#bgSolid)"/>
  <rect x="64" y="64" width="896" height="896" rx="208" fill="url(#bg)"/>
  <!-- 细边框 -->
  <rect x="65.5" y="65.5" width="893" height="893" rx="206.5" fill="none" stroke="#3a4a5c" stroke-width="3"/>
  <!-- 顶部光泽 -->
  <rect x="64" y="64" width="896" height="448" rx="208" fill="url(#sheen)"/>

  <!-- 终端窗口标题栏三圆点 -->
  <g>
    <circle cx="244" cy="232" r="26" fill="#ff5f57"/>
    <circle cx="332" cy="232" r="26" fill="#febc2e"/>
    <circle cx="420" cy="232" r="26" fill="#28c840"/>
  </g>

  <!-- 命令提示符 > -->
  <polyline filter="url(#glow)" fill="none" stroke="url(#accent)" stroke-width="76"
            stroke-linecap="round" stroke-linejoin="round"
            points="318,444 506,588 318,732"/>
  <!-- 光标 _ -->
  <rect filter="url(#glow)" x="556" y="694" width="188" height="64" rx="32" fill="url(#accent)"/>
</svg>
